<svg id="GL_027x80_mercedes" xmlns="http://www.w3.org/2000/svg" viewBox="0 0 80 80"><path id="GL_027x80_mercedes-2" data-name="GL_027x80_mercedes" d="M57.9,47.74l.08-.17,0-.07h0A19.3,19.3,0,0,0,59.5,40a19.5,19.5,0,1,0-37.6,7.22h0c0,.12.08.24.13.36s.19.4.28.6c.18.37.34.75.54,1.11.08.15.18.3.27.46l.13.2h0a19.46,19.46,0,0,0,33.5,0h0c.06-.09.1-.18.16-.28l.37-.66C57.51,48.6,57.71,48.18,57.9,47.74ZM57.5,40a17.32,17.32,0,0,1-2.1,8.29l-.07,0L42.91,38.56a.4.4,0,0,1-.17-.3c-.19-1.38-.39-2.75-.58-4.12s-.35-2.56-.53-3.84-.36-2.53-.53-3.8c-.15-1-.29-2.05-.43-3.08,0-.27-.08-.6-.12-.87h0A17.51,17.51,0,0,1,57.5,40Zm-18-17.47v0c-.08.54-.15,1.13-.23,1.67-.1.79-.21,1.57-.32,2.35L38.6,29l-.33,2.37c-.11.77-.21,1.54-.32,2.32l-.36,2.62c-.1.68-.19,1.35-.28,2a.38.38,0,0,1-.15.22l-2.31,1.8L24.72,48.26l-.1.08a17.47,17.47,0,0,1,14.86-25.8Zm.52,35A17.49,17.49,0,0,1,25.63,50h0c-.09-.13-.18-.26-.26-.39s-.11-.17-.16-.25l.12-.06,4.38-1.79L39.8,43.33a.41.41,0,0,1,.36,0l14.58,5.91.08,0-.1.17-.35.52h0A17.49,17.49,0,0,1,40,57.51Z"/></svg>